<svg version="1.1" id="Layer_1" xmlns="http://www.w3.org/2000/svg" xmlns:xlink="http://www.w3.org/1999/xlink" x="0px" y="0px"
	 width="100%" viewBox="0 0 1024 1024" enable-background="new 0 0 1024 1024" xml:space="preserve">
<path fill="#000000" opacity="1.000000" stroke="none" 
	d="
M537.000000,1025.000000 
	C359.500000,1025.000000 182.499985,1024.986206 5.500057,1025.093872 
	C1.750700,1025.096069 0.905801,1024.249146 0.906913,1020.500000 
	C1.007246,682.166687 1.007246,343.833344 0.906913,5.500028 
	C0.905801,1.750903 1.750902,0.905800 5.500028,0.906912 
	C343.833344,1.007255 682.166687,1.007255 1020.500000,0.906912 
	C1024.249146,0.905800 1025.094360,1.750902 1025.093262,5.500027 
	C1024.992920,343.833344 1024.992798,682.166687 1025.093140,1020.500000 
	C1025.094238,1024.249146 1024.249390,1025.096558 1020.499939,1025.093994 
	C859.500000,1024.984985 698.500000,1025.000000 537.000000,1025.000000 
z"/>
<path fill="#F6A814" opacity="1.000000" stroke="none" 
	d="
M268.725220,302.312622 
	C265.603302,297.000916 265.207306,290.949066 261.715332,286.269806 
	C260.902496,285.180573 261.020782,284.102417 261.028870,282.977997 
	C261.051666,279.814789 260.186493,277.890015 257.306610,275.515869 
	C255.113998,273.708344 252.556351,271.160004 250.686279,268.702393 
	C248.385529,265.678772 245.229385,263.407684 243.385300,260.043152 
	C242.930450,259.213257 241.812988,258.755615 241.993958,257.561066 
	C242.459747,254.486404 241.937500,252.308441 238.020523,252.868927 
	C237.526489,252.939621 236.486389,252.292633 236.434402,251.884537 
	C235.765427,246.631546 230.512360,247.240387 227.665161,244.833450 
	C224.161133,241.871262 219.882812,240.174515 216.401581,236.876114 
	C214.363998,234.945526 209.693222,233.357101 205.825989,232.806808 
	C205.243103,232.723862 204.382996,233.318771 204.057983,232.582428 
	C201.954758,227.817352 196.013519,227.433090 193.386230,227.673813 
	C188.419830,228.128891 184.117615,224.694595 179.557480,226.367249 
	C177.937485,226.961441 176.036270,227.386993 174.757355,228.160049 
	C170.915741,230.482178 170.066040,226.669083 169.461227,225.311554 
	C168.543045,223.250626 168.225235,220.807281 171.269684,218.603394 
	C175.059555,215.859924 178.768951,214.412506 183.332367,213.889328 
	C187.777710,213.379669 191.151321,210.037735 194.972961,207.913681 
	C197.795868,206.344788 199.380203,202.028015 203.776459,204.160095 
	C203.917877,202.121582 207.033401,203.862091 206.903549,201.866531 
	C206.702271,198.773315 209.691055,198.800110 210.817581,197.324585 
	C215.486450,191.209305 221.899231,186.856018 226.520279,180.621490 
	C229.543610,176.542542 228.809601,172.304153 229.908554,168.185852 
	C230.239792,166.944519 229.984772,165.650070 230.862656,164.425919 
	C233.702621,160.465866 236.234787,156.354630 235.159149,151.074280 
	C235.067245,150.623077 235.681946,149.681168 236.159637,149.514130 
	C241.192139,147.754395 240.080276,143.615952 239.929779,139.897598 
	C239.850739,137.944855 240.724579,136.377701 241.648300,134.836624 
	C244.904327,129.404388 247.057419,123.639793 247.018051,117.226662 
	C246.998322,114.013351 249.082001,114.053497 251.400497,113.968330 
	C253.940567,113.875000 255.267090,114.815628 254.973480,117.413094 
	C254.538162,121.264145 257.602417,124.380516 257.945435,127.287193 
	C258.808105,134.597733 265.955200,136.969345 267.832306,142.715378 
	C268.951508,146.141388 271.271851,147.316101 273.636383,149.096649 
	C276.596771,151.325897 275.320099,156.176254 279.035614,158.218857 
	C279.892548,158.689957 280.574158,159.593826 281.645569,160.137665 
	C284.639893,161.657547 287.645386,162.946762 288.450775,167.218567 
	C288.807220,169.109161 292.218506,170.574722 294.448669,171.882477 
	C295.272644,172.365646 296.394531,172.602676 296.874908,173.420105 
	C301.033630,180.496902 309.438416,181.967056 314.852448,187.118317 
	C318.269073,190.369141 323.941589,189.293671 326.037872,194.094009 
	C328.303711,191.858917 329.873810,195.351379 331.609741,194.871826 
	C334.666504,194.027390 336.861267,194.654175 338.718323,197.136948 
	C339.452118,198.117935 340.027557,197.227921 340.716125,196.810913 
	C344.911835,194.270020 348.477631,196.811218 351.872284,198.653152 
	C354.019165,199.818054 353.069214,205.268204 350.756744,206.632385 
	C345.744141,209.589447 340.452789,212.127197 336.600677,216.744415 
	C335.778748,217.729614 334.239349,216.665817 332.961151,217.710861 
	C330.804260,219.474289 326.703430,219.345322 327.686401,223.821457 
	C327.689087,223.833832 327.390381,223.938034 327.227478,223.957443 
	C322.312408,224.542130 319.956665,229.181290 315.915802,231.353333 
	C313.259491,232.781174 311.577698,237.187790 311.016602,240.961807 
	C310.730591,242.885269 311.787384,245.120941 308.153015,245.487198 
	C307.384186,245.564667 304.351196,249.425140 304.071106,252.468674 
	C303.979858,253.460526 304.302887,255.100662 303.838470,255.355759 
	C297.653625,258.753296 300.669861,266.823090 295.819427,270.859589 
	C293.432190,272.846252 294.607239,276.166962 293.921753,278.676636 
	C292.529358,283.774506 290.815948,288.444489 287.803009,292.659241 
	C286.557220,294.401947 286.749603,296.296631 287.138824,297.879730 
	C287.618011,299.828400 288.354034,301.320709 285.768677,302.057770 
	C285.617096,302.100983 285.490997,302.233459 285.353058,302.324402 
	C288.780945,306.794037 281.712463,308.822174 282.923248,312.936371 
	C283.732147,315.684875 281.629425,316.720032 279.322571,316.944489 
	C277.167236,317.154236 276.234406,316.175781 275.898224,313.792725 
	C275.612976,311.771057 275.741608,309.122101 272.040466,308.654785 
	C270.134430,308.414062 268.599670,305.417664 268.725220,302.312622 
z"/>
<path fill="#F6A814" opacity="1.000000" stroke="none" 
	d="
M785.724609,824.730469 
	C787.181152,821.996033 790.049866,822.761780 792.041077,821.383179 
	C794.867126,819.426819 796.495300,817.213806 798.617188,814.757812 
	C803.042236,809.636047 806.403870,803.439270 812.523804,799.577332 
	C817.537048,796.413696 821.300659,791.795654 822.151550,785.200562 
	C822.476868,782.679199 822.343018,778.927856 826.151123,777.878845 
	C826.979004,777.650818 827.102783,776.877747 826.955322,776.310547 
	C825.578247,771.016357 829.433655,766.411499 828.941589,761.317444 
	C828.580872,757.582153 831.486694,754.621521 833.411560,755.417297 
	C836.028259,756.498962 841.031372,756.132507 840.988953,761.090271 
	C840.954102,765.169617 845.657471,767.840759 844.158936,772.285950 
	C851.679321,775.471252 849.475037,782.750183 851.107910,788.467773 
	C851.889099,791.203430 854.514404,792.609863 857.225464,792.866943 
	C860.765259,793.202576 862.044128,795.143738 863.173950,798.266357 
	C864.122253,800.887390 865.892090,803.865662 869.332397,803.908691 
	C872.614258,803.949768 875.066589,806.309998 876.710327,807.904541 
	C879.416443,810.529907 880.523621,814.783569 885.512146,814.141479 
	C890.598694,820.683960 899.821838,818.066406 905.574280,823.239258 
	C910.093323,827.302979 915.243164,830.103333 921.569641,830.012390 
	C922.319153,830.001587 922.669495,830.420715 922.956055,831.111816 
	C924.658325,835.216858 921.502014,840.400330 918.342651,843.289551 
	C914.777100,846.550415 911.108948,846.591309 907.005737,847.301636 
	C904.467957,847.740967 901.946533,849.195618 899.871155,852.065491 
	C897.869385,854.833679 892.804810,855.251587 889.297058,857.102478 
	C885.371521,859.173828 880.720459,860.145630 877.802429,863.846741 
	C874.794983,867.661438 869.388672,868.410400 866.803467,872.728516 
	C864.395325,876.750549 858.989563,878.431152 857.405334,882.525940 
	C855.583618,887.234375 849.690857,889.882507 850.293335,894.981934 
	C850.816223,899.407837 845.067017,899.143799 845.897827,903.322632 
	C846.659912,907.155518 843.106567,910.799133 841.419983,912.787231 
	C838.019714,916.795349 839.193542,918.938416 840.619446,922.725647 
	C841.300232,924.533997 838.999329,927.566162 837.805237,929.920288 
	C837.425781,930.668396 836.606445,931.152405 837.659180,931.791321 
	C838.538513,932.325134 840.732056,931.382874 839.682373,933.881165 
	C838.920105,935.695251 837.624512,936.390625 835.810730,935.966125 
	C834.541260,935.668945 832.740784,937.029724 832.043579,934.820251 
	C830.484192,929.877808 825.675415,926.351013 825.878296,920.608398 
	C825.903809,919.885742 824.920776,919.094910 825.007507,918.412170 
	C825.614014,913.641174 823.909607,910.052917 820.488098,906.664734 
	C818.635254,904.830139 819.426880,901.371033 818.603943,898.695068 
	C817.704346,895.769897 814.572266,894.279297 814.766479,890.900757 
	C814.880249,888.920898 812.053162,890.830505 810.848389,889.036316 
	C807.868103,884.598389 804.279236,880.572205 801.036926,876.303101 
	C800.656616,875.802307 800.553528,875.173889 799.803955,875.026550 
	C796.389465,874.355652 793.821960,871.186829 791.021729,870.643982 
	C788.515442,870.158203 786.123230,870.409973 783.908936,868.528870 
	C781.800354,866.737671 780.095947,863.437988 776.231628,865.653931 
	C775.775452,865.915588 773.841675,864.490417 773.246033,863.466980 
	C770.491150,858.733398 765.631287,858.218994 761.084656,857.041565 
	C755.756409,855.661560 752.660217,851.496948 749.328369,847.645752 
	C748.605957,846.810669 749.475586,846.167053 749.999207,845.544312 
	C750.886047,844.489746 756.051697,843.453979 757.497681,842.678955 
	C761.754150,840.397400 766.588257,839.609253 770.705811,836.942932 
	C774.346558,834.585388 778.302856,832.581238 782.353882,831.033875 
	C785.552490,829.812073 782.780273,826.130737 785.724609,824.730469 
z"/>
<path fill="#FCC506" opacity="1.000000" stroke="none" 
	d="
M632.353271,508.001007 
	C634.318420,508.071381 636.337219,507.365295 636.017212,510.235565 
	C635.827881,511.933563 636.621216,514.029907 634.011292,514.552124 
	C631.463074,515.062012 628.921326,515.670959 626.345642,515.957520 
	C623.927917,516.226501 622.133728,516.102173 619.984619,518.598022 
	C618.570679,520.240051 614.054810,521.497314 610.662903,521.927002 
	C606.906494,522.402954 603.207336,523.023376 600.589111,526.016418 
	C597.846619,529.151428 593.160339,525.910339 590.730652,529.052979 
	C586.349121,534.720093 577.028992,534.663086 574.726196,542.205261 
	C572.571472,549.262207 568.270996,555.115540 564.259399,560.765808 
	C559.943970,566.844116 559.447144,573.662598 557.167969,580.091125 
	C556.543335,581.852783 555.950684,582.037231 554.559692,582.011658 
	C550.523193,581.937317 547.512024,579.122803 548.073547,575.222900 
	C548.372864,573.144348 547.449402,571.842834 546.720642,570.319885 
	C546.028259,568.873230 545.018677,567.608704 544.955811,565.875549 
	C544.858093,563.181580 544.817078,561.207520 542.013733,558.762329 
	C539.355652,556.443848 536.712646,552.013062 536.130493,547.720093 
	C535.633850,544.058105 533.762756,540.708252 533.971191,536.929565 
	C534.013611,536.160645 534.142151,535.121094 532.919556,535.077332 
	C528.387573,534.915283 527.657715,531.252747 525.783875,528.180786 
	C524.218872,525.615234 520.921448,524.161621 518.603882,521.988831 
	C513.000488,516.735352 505.219086,516.956116 498.817383,513.855164 
	C494.447998,511.738647 490.536407,508.643433 486.532379,505.826263 
	C485.307220,504.964233 485.951416,503.310760 486.066467,502.090485 
	C486.230804,500.347443 487.805634,501.059326 488.833557,501.026825 
	C496.192322,500.793854 503.234283,498.530579 510.560425,497.822937 
	C521.639832,496.752838 530.161255,489.050446 540.105164,484.924988 
	C541.717957,479.651794 548.970825,477.545563 548.021057,470.809418 
	C547.908386,470.009827 547.799805,468.798248 548.246826,468.393799 
	C553.616333,463.535583 552.950623,457.420776 552.068115,451.212463 
	C552.009216,450.798004 552.264709,450.224579 552.561035,449.891357 
	C556.035889,445.983154 555.982361,440.887115 556.851440,436.217682 
	C557.364441,433.461304 559.463745,432.883453 561.017273,432.157349 
	C562.936096,431.260498 563.819214,433.612396 565.018555,434.971649 
	C570.668030,441.374390 571.450806,450.031860 575.544067,457.131958 
	C575.627319,457.276276 575.704468,457.424286 575.792480,457.565521 
	C577.111267,459.682617 574.455200,460.785950 574.514221,462.581207 
	C577.993774,462.359009 577.214294,464.452820 576.333801,466.236542 
	C575.244080,468.444275 577.779541,468.825500 578.337891,469.323181 
	C582.260864,472.819672 586.139771,476.133087 586.007080,482.024628 
	C585.983398,483.074280 586.098877,484.112976 587.548401,483.990814 
	C590.174927,483.769409 590.373718,485.394745 591.224243,487.462372 
	C592.270874,490.006927 595.900574,490.632019 598.242981,491.738068 
	C606.208557,495.499268 613.458923,500.454681 621.220581,504.351440 
	C624.205811,505.850189 627.553284,509.409393 632.353271,508.001007 
z"/>
<path fill="#FCC506" opacity="1.000000" stroke="none" 
	d="
M812.197876,201.909256 
	C809.983887,206.244339 809.580017,210.262802 810.662048,214.879990 
	C811.351257,217.820953 812.351624,221.855057 808.503967,224.247849 
	C808.195740,224.439514 807.935303,225.193481 808.063599,225.529007 
	C810.158142,231.005249 804.206848,233.504013 803.426758,237.955521 
	C803.257874,238.919327 801.961975,240.367615 800.352966,240.001297 
	C798.536682,239.587769 797.005127,238.392517 796.259460,236.789215 
	C794.718506,233.476181 793.461365,230.025360 792.204163,226.588501 
	C791.565247,224.841614 791.450989,223.132721 789.608276,221.722733 
	C788.338501,220.751160 788.643799,218.342651 789.930298,216.384903 
	C792.140137,213.021942 791.064209,211.118042 787.124756,211.326294 
	C785.715393,211.400787 785.664795,210.357162 785.670532,210.097076 
	C785.786743,204.836960 782.619751,200.787827 779.757812,197.200485 
	C776.135742,192.660294 773.382202,187.176483 768.104248,184.061508 
	C767.976074,183.985870 767.671265,184.085098 767.628967,184.006180 
	C764.126587,177.475372 755.378174,179.320892 751.237488,173.711746 
	C749.804199,171.770050 746.904663,172.326782 744.979858,170.315323 
	C743.516785,168.786484 739.224365,171.245895 738.232056,167.146210 
	C735.385986,169.189774 732.640442,166.405273 729.803040,166.960663 
	C728.842102,167.148773 727.712830,167.240707 726.830750,166.915176 
	C724.727173,166.138901 721.335693,165.691620 721.327637,163.513824 
	C721.317993,160.907104 724.226562,158.885468 726.730347,158.148483 
	C731.694885,156.687241 737.485352,156.653412 741.760437,154.572418 
	C747.117798,151.964630 753.043640,152.024597 758.433228,149.048798 
	C762.218262,146.958908 765.297546,142.884384 770.768066,142.491974 
	C773.936279,142.264694 777.427856,137.783829 779.774475,134.710144 
	C784.493286,128.529358 787.383240,120.910973 792.307495,114.941322 
	C796.221313,110.196693 796.395142,103.807419 800.747314,99.543648 
	C801.424072,98.880646 800.407471,98.107727 799.949280,97.452950 
	C798.590149,95.510651 798.305054,93.502617 799.897705,91.556648 
	C801.958801,89.038246 804.857117,89.717209 807.294128,90.280144 
	C809.604065,90.813751 810.684998,93.105186 809.910706,95.424942 
	C808.666138,99.153450 810.143433,104.311531 811.578369,105.227356 
	C815.172607,107.521317 815.495239,110.937347 816.978638,113.931129 
	C818.401245,116.802101 818.672913,120.477219 820.637634,122.790680 
	C823.553284,126.224030 824.406006,130.774292 828.018188,133.931168 
	C830.244324,135.876740 831.880493,138.786209 834.157532,141.093643 
	C836.038269,142.999466 837.353149,145.106110 840.208679,145.653320 
	C840.990479,145.803131 842.144226,146.011917 842.011536,147.503616 
	C841.754089,150.398987 843.213562,150.560242 845.331665,149.346771 
	C846.455566,148.702896 847.790833,149.657486 847.945312,150.047318 
	C849.563782,154.131027 852.978638,153.085007 855.953857,152.925018 
	C858.687622,152.777985 860.856506,153.154892 861.704773,156.183167 
	C861.868042,156.765808 862.299133,157.273438 862.606628,157.815674 
	C866.175720,155.003143 867.571045,159.558502 870.173889,160.057831 
	C873.660339,160.726624 871.643250,163.472778 871.893982,165.238281 
	C872.216614,167.509750 870.941895,167.463058 868.888672,167.140350 
	C863.355835,166.270737 858.169434,167.624969 853.573181,170.918045 
	C852.955627,171.360504 852.549988,172.318207 851.697998,171.254364 
	C849.850464,168.947601 848.101501,170.030273 846.774048,171.684830 
	C842.798767,176.639603 836.055054,175.413605 831.224243,178.735977 
	C829.776001,179.732025 828.580994,180.904877 827.579102,182.082794 
	C825.977905,183.965103 824.531250,185.835556 821.903442,185.971649 
	C819.570435,186.092484 818.108032,188.325333 818.224915,189.428696 
	C818.545593,192.455231 816.109985,193.111084 814.512329,194.902985 
	C813.590088,195.390945 813.513672,196.004959 813.227905,196.848160 
	C813.094849,197.118393 813.052612,197.009064 813.090210,197.054047 
	C810.951294,198.284546 812.871216,200.168060 812.197876,201.909256 
z"/>
<path fill="#FFDB00" opacity="1.000000" stroke="none" 
	d="
M167.916138,818.373657 
	C165.736115,817.225403 164.476273,815.736633 164.247116,813.740723 
	C163.373795,806.134216 158.357635,799.525452 158.972305,791.572876 
	C159.076233,790.228394 158.161484,789.790466 157.063736,790.019897 
	C153.441193,790.776917 152.942017,788.041382 152.437744,785.711670 
	C151.899384,783.224304 151.365509,781.502625 148.745544,779.845398 
	C144.641693,777.249573 141.781281,772.933044 140.020767,768.236084 
	C139.282593,766.266724 137.847275,767.017883 136.746140,767.050171 
	C132.047165,767.187866 128.389679,765.915344 126.936653,760.897888 
	C126.334587,758.818848 124.491310,758.616211 122.874817,759.102051 
	C118.182892,760.512085 115.278618,759.185608 113.901367,754.305420 
	C113.279968,752.103455 111.052231,752.201538 109.089073,751.937256 
	C105.168434,751.409302 101.761841,745.079956 104.315292,744.013184 
	C107.629791,742.628540 110.049522,738.750305 114.280922,739.721130 
	C115.114555,739.912354 115.894493,740.191040 116.642044,739.707520 
	C125.296600,734.109497 134.613586,729.881165 143.918777,725.510132 
	C146.866409,724.125488 148.988724,719.262634 152.520432,716.956970 
	C154.560349,715.625244 156.672348,714.589844 157.994492,712.154846 
	C158.538315,711.153381 158.726166,710.250854 159.018814,709.259094 
	C160.641464,703.759644 162.310028,698.273682 163.947968,692.778748 
	C164.040756,692.467407 163.942810,691.842957 164.032394,691.823792 
	C168.957001,690.765808 168.943115,685.887512 170.819382,682.629578 
	C171.749496,681.014465 172.600189,681.091003 173.844910,681.003418 
	C175.557983,680.882996 176.737961,681.549683 177.105743,683.307007 
	C178.092255,688.020691 179.386520,692.675354 178.223068,697.607727 
	C177.783325,699.472107 176.987579,701.765442 180.471573,702.376038 
	C182.051910,702.653015 183.529358,704.468079 183.015396,706.645447 
	C182.043610,710.762329 183.881210,714.032104 186.066956,717.201233 
	C187.930862,719.903687 189.459381,722.640381 190.718979,725.789795 
	C192.226318,729.558716 194.531723,733.919922 200.221741,734.239990 
	C202.881760,734.389587 203.464127,737.955627 205.094467,739.849609 
	C207.132339,742.217224 209.201859,737.029541 212.358566,739.483459 
	C214.672409,741.282288 218.440964,741.224304 221.569931,741.956421 
	C225.730453,742.929871 230.641739,741.852173 233.432922,746.606323 
	C233.774033,747.187256 235.932190,747.394653 236.703857,746.909424 
	C240.014954,744.827637 242.796188,744.817627 245.954285,747.411316 
	C246.372360,747.754700 248.193634,747.314636 247.909607,748.984192 
	C247.677734,750.347229 248.610672,751.581543 246.750626,753.191284 
	C242.963242,756.469055 238.571167,758.750977 234.609253,761.688232 
	C233.471100,762.532104 231.530197,765.403076 229.550934,762.217041 
	C227.296143,765.255493 221.733002,760.275024 220.515411,765.937866 
	C220.435410,766.309937 219.835892,766.771240 219.419830,766.840393 
	C211.426498,768.167297 206.101578,773.480225 200.839249,779.003906 
	C198.476166,781.484375 194.516174,781.831299 192.429352,784.926758 
	C192.128494,785.373047 191.067108,785.459839 190.997345,786.462219 
	C190.633102,791.696655 186.223755,794.772644 184.264801,798.999390 
	C181.340637,805.308716 176.714279,811.360779 178.012100,819.100159 
	C178.412048,821.485168 177.224228,823.443787 176.220444,825.556274 
	C175.110306,827.892761 173.482697,828.224915 171.393860,828.001648 
	C168.815796,827.726013 169.055038,825.774475 168.958191,823.902039 
	C168.867432,822.147400 169.679901,820.226196 167.916138,818.373657 
z"/>
<path fill="#FFDB00" opacity="1.000000" stroke="none" 
	d="
M812.386475,201.988403 
	C812.732361,200.536621 808.383850,198.442169 812.810791,197.100128 
	C812.995850,198.664246 812.863892,200.229477 812.386475,201.988403 
z"/>
<path fill="#FFDB00" opacity="1.000000" stroke="none" 
	d="
M813.387451,196.991180 
	C813.293518,196.554352 813.492188,195.990311 813.936096,195.240158 
	C814.014221,195.657349 813.847107,196.260651 813.387451,196.991180 
z"/>
</svg>