<svg version="1.1" id="Layer_1" xmlns="http://www.w3.org/2000/svg" xmlns:xlink="http://www.w3.org/1999/xlink" x="0px" y="0px"
	 width="100%" viewBox="0 0 589 565" enable-background="new 0 0 589 565" xml:space="preserve">
<path fill="#000000" opacity="1.000000" stroke="none" 
	d="
M1.000000,218.000000 
	C1.000000,146.666687 1.031610,75.833321 0.903603,5.000237 
	C0.897414,1.575816 1.576234,0.903635 4.999986,0.905512 
	C198.666534,1.011672 392.333160,1.011665 585.999695,0.905555 
	C589.422791,0.903680 590.096497,1.575677 590.094543,4.999813 
	C589.987793,190.666367 589.987854,376.332977 590.094482,561.999512 
	C590.096436,565.422241 589.424866,566.096375 586.000366,566.094482 
	C392.333801,565.988281 198.667191,565.988403 5.000635,566.094421 
	C1.578330,566.096313 0.901209,565.425720 0.904651,562.000488 
	C1.019697,447.500427 1.000000,333.000214 1.000000,218.000000 
z"/>
<path fill="#EE8DA2" opacity="1.000000" stroke="none" 
	d="
M450.255127,497.665588 
	C447.756287,497.322174 446.588776,499.440186 444.411041,500.056641 
	C442.620300,499.861176 441.881409,498.902954 441.433289,497.248779 
	C441.514374,495.912170 442.153778,495.083984 442.376801,493.755157 
	C438.932953,494.269684 435.690002,494.326080 432.609619,495.500732 
	C431.016418,496.108307 429.409058,496.199097 427.775970,495.612701 
	C426.706879,495.228790 425.474091,494.435913 424.491150,495.281342 
	C421.054443,498.237274 419.316193,495.939331 417.980499,493.110840 
	C415.854980,493.902069 415.834717,497.736847 412.501099,495.676392 
	C411.625092,494.553040 411.524475,493.395233 410.053864,493.059631 
	C403.368530,491.533875 397.473907,487.835968 390.272919,485.883820 
	C392.510803,489.142090 391.140564,491.429840 388.257324,493.528992 
	C386.379028,494.469696 384.663849,494.629089 382.621155,494.959717 
	C379.315582,494.933411 376.206726,495.684052 373.676941,493.416779 
	C372.627533,492.476288 372.003815,491.327484 372.474945,489.866150 
	C372.839630,488.735077 373.738586,488.454071 374.829163,488.476624 
	C376.391510,488.508881 378.257568,489.964233 379.435547,488.137939 
	C380.599640,486.333038 381.149597,484.169342 381.081604,481.951355 
	C381.025879,480.133179 380.676300,478.308746 381.853119,476.650421 
	C383.977692,473.656708 388.040466,472.879486 390.949127,475.466827 
	C392.633453,476.965118 394.104218,476.950012 395.931122,476.513092 
	C397.724609,476.084198 398.272156,474.589874 397.138367,473.580261 
	C392.339935,469.307159 394.934113,465.261292 397.344696,460.813599 
	C400.429047,457.261688 404.311920,455.626984 408.269348,454.385773 
	C421.717224,450.167999 434.121796,443.836609 445.538635,435.702728 
	C455.449371,428.641907 461.942047,418.771027 467.950226,408.232635 
	C475.173187,395.563568 477.906158,381.582336 479.728546,367.827820 
	C481.595367,353.738312 483.436157,339.321716 480.521698,324.722748 
	C479.060699,317.404449 478.928009,309.598358 477.616852,302.101593 
	C476.406921,295.183441 474.469788,288.473480 472.176544,281.758972 
	C469.450684,273.777802 467.809021,265.373108 464.304932,257.634033 
	C459.931488,247.974945 456.351929,237.932968 450.741150,228.855896 
	C450.390869,228.289230 449.945404,227.762161 449.715515,227.143768 
	C443.200928,209.619949 430.021057,196.541672 419.411316,181.753693 
	C418.057098,179.866180 416.108276,178.480042 414.370667,176.922989 
	C412.517761,175.262711 410.659119,173.528946 410.662506,170.409180 
	C413.327698,167.794434 416.723083,167.950455 419.683350,167.319427 
	C429.318909,165.265427 434.924103,158.347046 440.234863,151.112717 
	C442.467285,148.071747 444.073059,144.538254 446.110229,141.311066 
	C447.173279,139.626999 447.935242,137.827530 447.686737,135.686890 
	C447.060883,130.296036 448.570099,124.955933 448.357788,119.246925 
	C449.229858,118.149223 450.238403,117.946358 451.120544,117.499443 
	C454.610870,115.731140 455.586273,112.283051 453.177246,109.345604 
	C451.503723,107.304977 449.528442,105.582970 448.348969,103.091019 
	C447.303009,100.881111 445.099365,102.257095 443.023621,102.129059 
	C438.290070,99.758446 434.809845,96.188370 430.760345,93.402084 
	C414.531921,82.235992 397.352509,76.615288 378.514008,86.389816 
	C370.847687,90.367531 365.753479,97.252953 362.638031,105.455009 
	C359.700195,113.189453 358.892883,121.239937 358.661804,129.413757 
	C358.610687,131.222900 358.549866,133.089859 357.408661,135.076721 
	C355.307922,136.641632 353.338745,136.375916 351.411407,135.691788 
	C340.253174,131.731018 328.915314,129.213562 317.032928,127.805855 
	C302.709839,126.108986 288.322845,125.398445 274.360840,127.376442 
	C262.114441,129.111374 249.333252,130.568909 237.875519,136.346420 
	C236.337372,137.122040 234.742615,137.447128 232.685120,136.859207 
	C230.227219,135.127701 229.723160,132.837845 230.026276,130.467087 
	C231.863052,116.100471 227.379990,103.509048 218.135986,92.935089 
	C209.606766,83.178764 196.841599,77.720840 179.612595,83.399155 
	C172.400452,85.776138 165.635223,88.580299 159.342499,92.605721 
	C144.508286,102.095085 137.524963,119.654266 142.308029,137.631729 
	C144.370392,145.383179 148.737686,151.388229 153.261993,157.505081 
	C157.224487,162.862335 163.028549,165.338562 169.232574,167.046890 
	C171.667648,167.717392 174.114685,168.363251 175.243088,171.443497 
	C176.350632,174.715042 175.377625,176.937241 173.033401,178.787750 
	C167.608643,183.070038 164.665939,189.459579 160.131454,194.367218 
	C154.227707,200.756775 151.538223,208.988464 145.829803,215.548859 
	C138.654648,223.795013 134.823471,234.364990 130.418335,244.418121 
	C125.416061,255.833984 120.906616,267.383759 117.684242,279.443176 
	C116.792610,282.780029 115.059052,285.887115 112.941315,289.067017 
	C110.364075,289.251740 109.431221,287.083710 107.691345,286.209381 
	C105.171951,284.943329 103.013466,285.537292 103.092102,288.351227 
	C103.189110,291.822540 102.516701,295.151855 101.898453,299.483459 
	C105.023163,296.991425 107.263664,294.418213 111.119583,294.818207 
	C114.582573,299.428986 111.583748,303.750061 110.740021,307.874298 
	C107.928047,321.619629 106.575378,335.305267 107.768272,349.387390 
	C108.440903,357.327820 109.362350,365.241089 109.998329,373.179993 
	C110.267136,376.535492 111.194466,379.884674 112.242096,382.806427 
	C116.124504,393.634064 118.410187,404.884430 124.784622,415.075317 
	C131.664062,426.073486 140.923721,434.038269 150.765610,441.543884 
	C157.450363,446.641876 165.105743,450.660919 173.322922,453.047729 
	C176.389725,453.938538 179.259445,455.035461 182.099808,456.473938 
	C191.578705,461.274445 202.078156,462.673187 212.275101,464.917175 
	C222.250381,467.112457 232.666412,467.061188 242.408478,470.648590 
	C244.271164,471.334503 246.354156,471.238220 248.697647,471.591797 
	C251.239059,471.888977 253.350769,473.122284 255.976166,471.932190 
	C258.319916,471.450287 260.393951,471.107941 262.298218,471.560516 
	C272.912048,474.082947 283.778900,472.493439 294.477753,473.685608 
	C298.857574,474.173676 303.348969,473.454559 307.770874,473.317566 
	C312.616943,473.167419 317.323273,473.918579 322.456543,474.178314 
	C328.155579,480.650177 328.164551,481.857452 322.688843,488.254211 
	C321.824493,489.256897 321.109772,489.848785 319.888123,489.845032 
	C320.885742,490.084534 321.362946,489.487793 322.156525,488.850220 
	C322.980988,488.011078 323.766663,487.154297 324.478912,487.499084 
	C326.858856,488.651276 327.636230,488.261841 327.405579,485.473907 
	C327.271759,483.856415 329.033447,482.757233 330.073608,483.986206 
	C333.499176,488.033478 337.633667,486.087067 341.932922,485.992371 
	C344.360687,487.030762 345.343170,488.615173 344.722107,490.875824 
	C344.172607,492.875824 342.379425,493.331116 340.737244,493.011841 
	C335.369324,491.968170 332.817932,494.738708 331.526978,499.438873 
	C332.478241,499.855438 333.647186,499.505035 334.198303,498.944672 
	C338.979767,494.083191 345.516327,495.991425 351.149536,494.499359 
	C353.974060,493.751221 356.149597,495.754761 357.732025,498.066193 
	C359.350403,500.430054 360.842041,502.885162 359.571869,505.896332 
	C358.083405,509.425018 354.532318,509.924805 350.374969,506.938354 
	C349.852936,505.884064 349.746613,505.055969 349.418274,504.304871 
	C349.230133,503.874359 348.961823,503.325562 348.423065,503.544983 
	C347.904388,503.756134 348.035034,504.346283 348.279602,505.129974 
	C350.162262,509.302826 355.342865,509.404907 357.149597,513.655884 
	C357.069122,520.950867 354.249908,522.754761 348.152191,519.561218 
	C345.308929,518.072083 342.611206,516.667847 339.231995,517.046509 
	C337.279480,517.265320 335.603943,516.194641 334.686798,514.478027 
	C331.410583,508.345917 324.687286,506.573853 319.738159,502.567749 
	C318.412781,501.494873 316.548859,501.843353 314.984222,502.712616 
	C311.840454,504.459320 308.572845,505.521576 304.870880,504.484497 
	C306.256561,505.958191 307.911530,505.798737 309.345001,505.069550 
	C313.588318,502.910858 317.448669,504.470673 321.332794,506.031433 
	C323.700348,506.982788 324.904602,508.877197 325.455170,511.300507 
	C326.090912,514.098633 325.376831,515.848328 322.197327,516.083679 
	C320.579376,516.203430 318.842804,516.196289 317.459259,517.810852 
	C318.654083,519.600525 320.293488,519.157043 321.791260,518.601624 
	C325.772858,517.125061 329.619751,517.394836 333.417114,519.179565 
	C333.716949,519.320496 334.053192,519.505859 334.361664,519.480957 
	C339.800781,519.041138 342.908600,522.860352 346.662048,526.221191 
	C349.122192,528.078125 346.288788,532.205261 350.513824,533.192261 
	C351.013397,533.546265 351.194977,533.718933 351.544159,534.235840 
	C352.075928,536.396973 351.457123,537.665344 349.270996,538.160034 
	C347.709686,541.695374 345.103394,539.092590 343.141541,539.431396 
	C339.027802,540.141846 335.014801,541.314026 330.828339,541.794373 
	C328.892365,542.016479 325.918304,540.908936 325.168335,544.274658 
	C325.123535,544.475769 324.535339,544.775818 324.475647,544.722290 
	C320.093628,540.793640 315.289978,546.164246 310.740082,544.089844 
	C309.317474,543.441223 307.529694,544.030273 306.028229,544.969910 
	C304.940338,545.650635 303.627228,546.569336 302.352509,545.964294 
	C298.141907,543.965820 293.662689,546.330994 289.451538,544.985535 
	C288.842072,544.790710 287.921326,544.128479 287.718536,544.313110 
	C282.535858,549.030945 276.451141,545.819092 271.035126,545.567810 
	C267.617371,545.409180 263.574982,545.896790 259.998413,543.881042 
	C258.788788,543.199280 255.577881,543.704956 254.294220,544.294678 
	C249.959946,546.285645 251.300491,542.716248 250.708099,541.155151 
	C247.024307,542.057007 243.746979,543.460571 239.995712,540.971863 
	C238.899216,540.244507 235.974106,540.829712 233.798874,540.424133 
	C230.383575,539.787292 227.163956,538.810486 223.922012,537.609558 
	C222.050461,536.916199 220.133652,534.037231 217.590302,536.871033 
	C217.452667,537.024414 215.122345,535.171814 213.384155,534.580139 
	C206.986008,532.402161 200.223434,531.360474 194.011078,529.038391 
	C189.745926,527.444092 184.630402,526.629517 181.292221,522.797852 
	C180.674667,522.089050 179.903900,521.982605 179.049988,521.993103 
	C174.648773,522.047302 171.429779,519.485168 168.570358,516.697449 
	C167.316879,515.475403 167.017700,514.662842 165.322937,516.068176 
	C162.797226,518.162476 163.088287,514.191223 161.089493,513.722534 
	C156.321152,512.604370 152.971268,508.048431 148.715149,506.092896 
	C145.270752,504.510315 143.757324,499.820099 139.102127,500.544922 
	C136.405212,500.964813 135.947830,498.003937 134.475754,496.667450 
	C131.491653,493.958282 127.509094,493.365906 124.339371,490.542084 
	C119.593643,486.314301 114.833733,482.008911 109.940475,477.904663 
	C106.398277,474.933655 102.614677,471.719086 99.850929,468.503418 
	C95.938316,463.950958 90.221611,460.682892 87.741699,455.702332 
	C85.367996,450.935089 82.311256,446.561523 78.608849,443.964752 
	C74.800522,441.293732 72.057587,437.241119 70.883331,434.333282 
	C69.018120,429.714417 64.899506,427.029724 63.203667,422.323059 
	C62.084309,419.216461 58.764751,416.030701 56.709217,412.849335 
	C54.477703,409.395599 53.285149,405.167267 50.995491,401.592743 
	C47.762440,396.545471 45.802647,390.995392 43.651825,385.430359 
	C42.286232,381.896973 41.966633,377.964722 39.948444,374.746582 
	C38.192295,371.946259 35.698673,369.396301 35.353024,366.071716 
	C34.918041,361.887909 30.819592,358.984314 31.770779,354.352997 
	C32.065525,352.917908 31.691145,350.865814 30.803028,349.747498 
	C26.108934,343.836945 26.195646,336.178070 24.616825,329.564178 
	C22.887041,322.317963 18.628632,315.129333 19.968912,307.443939 
	C20.989487,301.591766 16.384550,296.457825 18.899967,290.600067 
	C19.801603,288.500336 19.663273,286.127472 17.634058,283.955261 
	C15.306341,281.463531 19.408524,279.025879 18.223333,275.728485 
	C16.588385,271.179810 17.937500,265.745850 18.540821,261.265137 
	C19.589958,253.473434 18.704649,245.401886 21.223232,237.869690 
	C21.775364,236.218460 21.368393,235.210953 21.088629,233.834290 
	C20.825884,232.541351 19.198301,230.718872 21.973227,229.953033 
	C23.484800,229.535873 22.598341,228.701523 22.333073,227.738449 
	C21.197834,223.616943 22.899384,220.119797 25.330732,216.967987 
	C26.212492,215.824936 25.517344,214.940491 25.556505,213.927185 
	C25.693245,210.388962 24.287317,206.296463 28.381605,203.771988 
	C28.732765,203.555466 28.568356,202.491592 28.630943,201.820145 
	C28.909517,198.831619 27.185190,195.140564 31.592588,193.574127 
	C31.900339,193.464737 32.112698,192.327774 31.951080,191.795746 
	C31.412998,190.024475 30.565771,188.420349 33.487389,187.838867 
	C34.263237,187.684448 34.187885,186.119217 33.571743,185.195694 
	C33.285763,184.767044 31.915312,184.479141 32.460888,184.330841 
	C37.104893,183.068649 35.127285,178.482727 36.780930,175.717148 
	C38.563313,172.736252 38.655113,168.650482 40.799183,165.637558 
	C44.537544,160.384277 45.378918,153.881943 49.247528,148.422745 
	C52.302074,144.112305 55.097321,139.064224 57.605762,134.115616 
	C58.778362,131.802338 61.055740,130.065414 62.358238,127.795212 
	C63.083710,126.530731 64.048927,125.406601 64.609375,123.881935 
	C65.780090,120.697098 67.100296,117.128860 71.033813,115.950104 
	C71.483994,115.815193 72.152275,115.526855 72.238449,115.187515 
	C74.333382,106.938004 82.127838,103.782043 87.379066,98.409187 
	C92.916695,92.743279 98.952621,87.923973 106.373634,84.220932 
	C111.120293,81.852386 117.274918,79.310707 120.228867,73.504593 
	C121.211929,71.572357 124.195580,72.230453 126.199615,71.268181 
	C129.211746,69.821854 131.270584,66.969582 135.016602,66.188217 
	C137.743027,65.619514 141.207352,64.026169 143.604935,61.824013 
	C147.388962,58.348412 152.474625,57.635265 156.837585,55.565781 
	C163.044312,52.621742 169.498856,50.153912 175.731247,47.092144 
	C179.847198,45.070110 183.443024,41.647076 189.106232,41.943985 
	C191.247299,42.056236 195.170959,39.145786 198.475311,37.982323 
	C205.919296,35.361298 213.145569,31.645382 220.803711,30.222651 
	C231.868744,28.166977 242.566238,23.200085 253.981903,24.246334 
	C259.122314,24.717453 263.409821,22.649673 268.177338,22.255737 
	C277.984344,21.445383 287.900330,20.659916 297.575134,21.513870 
	C303.819305,22.065018 310.540894,23.435461 316.498383,23.229668 
	C322.374634,23.026678 327.689026,25.736465 333.588226,24.588011 
	C337.814484,23.765247 342.299866,25.838713 346.590607,26.630182 
	C353.823303,27.964336 361.235626,28.103104 368.344269,30.011860 
	C378.352905,32.699306 388.885590,32.639885 398.773926,35.962986 
	C403.347473,37.499992 408.014740,38.756168 412.624969,40.186527 
	C424.688995,43.929482 435.857727,49.811951 447.131317,55.314659 
	C450.088104,56.757893 452.927582,59.771275 455.574860,62.399738 
	C458.117737,64.924614 461.778503,67.212769 465.278229,69.011650 
	C469.789032,71.330246 472.796417,75.550941 477.057861,78.035789 
	C484.408661,82.322060 488.942444,89.165054 494.529022,95.171730 
	C498.454712,99.392601 501.743896,103.803909 504.875183,108.490692 
	C505.046936,108.747772 504.986908,109.354202 505.145050,109.397774 
	C510.774994,110.948547 511.261627,117.120117 514.117065,120.816483 
	C516.743530,124.216431 520.327759,128.045578 521.569885,132.725113 
	C521.715637,133.274124 521.317993,133.697968 522.209595,134.015244 
	C525.721069,135.264832 526.079041,138.378738 527.226868,141.490067 
	C529.106201,146.584106 532.461914,151.114456 534.921509,156.019638 
	C536.818298,159.802353 540.184326,162.991852 539.269348,168.034653 
	C539.020508,169.406555 539.617554,172.147766 541.656616,173.082352 
	C544.071960,174.189377 544.778442,176.442871 545.065369,178.484787 
	C545.862366,184.155151 548.787292,189.016068 550.413025,194.293564 
	C551.796326,198.784103 554.512939,203.291779 553.317505,208.491455 
	C553.222229,208.905807 552.764038,210.500732 553.577393,210.934601 
	C558.987000,213.820206 556.114685,219.427917 557.609985,223.598480 
	C558.669067,226.552444 557.747253,230.237473 560.383789,232.878036 
	C560.609375,233.103958 560.972412,233.578781 560.919495,233.641632 
	C555.763306,239.767227 564.764465,245.731110 561.119324,251.815308 
	C564.760498,256.632050 562.896973,262.554199 563.444885,267.751923 
	C564.071777,273.699646 565.038391,280.082764 563.844666,286.198395 
	C562.801880,291.540710 560.760864,297.030426 562.318298,302.245300 
	C563.737976,306.998352 559.741699,310.351379 560.736389,314.927734 
	C561.365723,317.823242 560.020386,321.202637 560.782898,324.389923 
	C560.856750,324.698792 561.026855,325.140564 560.889648,325.321564 
	C555.242615,332.771515 557.354187,342.220398 554.462952,350.457428 
	C552.639893,355.651245 551.885193,361.434418 550.596924,366.828003 
	C549.281372,372.336182 546.716370,377.916107 544.619751,383.386749 
	C542.757935,388.244568 540.433411,392.983612 538.684387,397.922211 
	C537.224976,402.042847 537.754333,407.469482 532.826172,410.378448 
	C531.811157,410.977600 533.992310,415.105591 530.195068,415.494965 
	C529.579956,422.509277 523.265381,426.412933 520.754456,432.477081 
	C520.156738,433.920563 519.265076,436.577332 516.397278,437.145447 
	C513.638184,437.692017 514.905090,441.173309 513.236694,443.214081 
	C509.548645,447.725250 505.789825,453.082367 501.512665,455.944000 
	C496.032867,459.610352 494.275208,465.607758 489.421082,469.230469 
	C486.643646,471.303253 483.410034,472.538910 480.780121,474.932709 
	C477.111237,478.272156 472.760742,480.854706 469.003510,484.109283 
	C467.614655,485.312317 466.909058,487.311340 464.459320,487.888153 
	C463.264801,488.643463 462.272339,488.878784 461.311188,488.607819 
	C458.606689,487.845306 456.339264,487.151611 454.489258,490.593262 
	C453.337402,492.736084 450.670807,491.557343 448.471161,490.574524 
	C448.355408,492.669342 450.107544,493.731537 450.730103,495.649689 
	C450.879486,496.153351 450.921417,496.326202 450.899719,496.758209 
	C450.722870,497.177429 450.609711,497.337524 450.255127,497.665588 
z"/>
<path fill="#EF91A5" opacity="1.000000" stroke="none" 
	d="
M381.700439,494.207642 
	C383.616486,493.022034 385.399170,492.910522 387.611298,492.998047 
	C389.009583,492.413818 389.910400,492.772339 391.046692,493.568115 
	C391.095795,497.369110 391.913788,499.736450 396.256378,498.294403 
	C396.842438,498.099792 397.579498,498.381897 398.172729,498.648010 
	C401.802826,500.276459 404.151367,498.960388 405.865601,495.213745 
	C408.109619,493.546631 410.164886,493.224030 412.667908,494.740967 
	C416.010071,496.388306 414.820801,493.275055 415.664917,492.385040 
	C416.379150,491.631927 416.235657,490.003143 417.893219,490.257050 
	C419.258057,490.466095 419.735992,491.500092 419.952759,492.728973 
	C420.142548,493.804688 419.676361,495.317108 421.213104,495.640228 
	C422.949921,496.005463 422.645630,494.303040 423.178131,493.390808 
	C424.432465,491.242035 425.867798,492.907379 426.849365,493.604095 
	C428.856232,495.028687 430.559906,495.296173 432.751099,493.903534 
	C435.854309,491.931335 440.047638,493.963501 443.130615,491.304352 
	C443.752930,490.767609 444.674408,491.608612 444.861389,492.532501 
	C445.273804,494.570343 443.851593,495.517700 442.218018,496.723816 
	C437.408783,498.114777 440.064545,501.114349 440.181152,503.800079 
	C432.614929,507.731018 425.180634,511.350128 417.374268,514.901733 
	C414.275787,513.136658 411.625610,511.621368 408.624481,514.524414 
	C407.689148,515.429199 406.060822,515.430481 404.826599,514.957275 
	C400.342865,513.238037 396.835968,514.680176 393.746643,517.982178 
	C392.938049,518.846436 391.768005,519.123352 390.227203,519.209473 
	C389.385437,519.147644 388.917969,519.033691 388.141785,518.702393 
	C385.439575,514.486511 381.402435,515.079224 377.652863,514.963196 
	C375.177185,514.886597 372.588379,515.313660 370.769958,512.464844 
	C370.524353,511.471161 370.497131,510.737946 370.920319,510.241760 
	C375.058502,505.389923 376.921204,499.034943 381.700439,494.207642 
z"/>
<path fill="#ED8A9F" opacity="1.000000" stroke="none" 
	d="
M347.331726,527.083740 
	C344.492859,527.161682 342.386597,526.844482 341.745850,523.772827 
	C341.366333,521.953674 340.328735,521.265564 338.100250,521.655762 
	C335.907837,522.039673 333.580963,521.110901 331.493286,520.014648 
	C328.505096,518.445618 325.487732,518.478333 322.471680,520.010681 
	C321.744995,520.379883 320.983551,520.784729 320.196014,520.911316 
	C317.483368,521.347107 315.295380,519.895935 314.706512,517.629028 
	C314.036102,515.048157 317.175385,516.450012 318.263885,515.397156 
	C318.822510,514.856873 319.764832,514.725464 320.513336,514.366699 
	C321.806580,513.746826 324.358032,516.405945 324.418213,513.511597 
	C324.472137,510.919250 323.610992,508.472260 320.360626,506.852814 
	C314.738831,504.051910 309.788696,506.878296 304.557251,507.302612 
	C303.945404,507.352264 303.342682,507.514740 302.420013,507.682251 
	C302.526123,504.955078 304.575928,502.950867 303.627838,500.034363 
	C307.352997,505.683838 311.043884,503.875885 314.793671,500.834900 
	C316.708527,499.281982 318.741577,500.134857 320.419403,501.049042 
	C325.180298,503.643127 328.940033,507.858246 334.252411,509.655334 
	C334.768524,509.829926 334.846771,511.408356 335.058411,512.350830 
	C335.505585,514.342285 336.925720,516.348389 338.653564,515.770447 
	C343.208618,514.246704 346.154144,517.027039 349.609802,518.776123 
	C354.272125,521.136108 355.573914,520.270081 355.999817,514.411499 
	C356.375366,513.671997 356.796448,513.424194 357.636078,513.254028 
	C361.900482,514.633972 362.334839,518.576782 363.368530,521.617065 
	C364.151001,523.918274 364.440033,525.794250 366.958588,526.815735 
	C368.792419,527.559570 369.454376,529.359131 369.175842,531.710815 
	C369.067352,532.215515 369.028839,532.379089 368.910614,532.781921 
	C368.718842,533.180542 368.606812,533.339966 368.255615,533.667358 
	C367.274628,533.896362 366.532806,533.957458 365.420685,534.067139 
	C360.543793,532.888184 357.423981,528.090332 351.723114,528.990356 
	C350.069580,528.491211 349.000244,527.543762 347.331726,527.083740 
z"/>
<path fill="#EE8DA2" opacity="1.000000" stroke="none" 
	d="
M369.418030,532.135437 
	C367.708923,529.586731 366.888489,526.476624 362.990906,526.928772 
	C362.165649,527.024414 361.036682,526.418640 361.508362,525.526794 
	C363.979218,520.854309 359.496216,518.090942 358.315063,514.180054 
	C358.509277,510.578522 362.878540,508.389404 366.301331,510.028046 
	C367.643311,510.670532 368.848969,511.553284 370.696716,511.829956 
	C374.141357,515.064636 378.373474,513.788086 381.675354,513.526917 
	C385.469543,513.226746 386.731995,514.527100 387.954620,517.643005 
	C387.332794,521.957336 384.031525,521.155518 381.505463,521.399414 
	C379.059418,521.635498 376.468170,521.287964 374.464386,522.979187 
	C372.902588,524.297363 371.271820,526.021606 374.693634,527.228760 
	C376.936554,528.020020 377.220367,529.544250 376.223572,531.821106 
	C373.974609,534.284241 371.821869,531.424744 369.418030,532.135437 
z"/>
<path fill="#EE8BA0" opacity="1.000000" stroke="none" 
	d="
M389.778931,518.283081 
	C394.010406,518.512268 394.505646,513.279541 398.275299,512.987183 
	C399.611481,512.883545 400.899017,511.858398 402.371155,512.705261 
	C405.453705,514.478577 407.681213,514.164429 410.513092,511.377991 
	C413.213287,508.721130 415.193054,512.117065 416.949249,514.500122 
	C412.807800,518.288269 408.105621,520.417297 402.630920,521.087830 
	C399.995728,521.410583 398.712982,524.770081 395.391357,524.908325 
	C394.036774,523.897522 392.742645,523.478088 391.408752,522.486450 
	C390.102203,521.254883 389.172882,520.188110 389.778931,518.283081 
z"/>
<path fill="#EE8BA0" opacity="1.000000" stroke="none" 
	d="
M389.666687,518.001465 
	C389.951141,519.450195 390.954346,520.372437 391.853760,521.711060 
	C392.446930,523.532776 391.051697,524.818726 391.213745,526.585449 
	C386.089478,528.050476 381.120056,529.107483 376.382080,531.958130 
	C375.576416,530.823792 377.067963,528.319458 374.132019,528.581116 
	C372.379059,528.737366 370.184937,529.113953 370.538177,526.869995 
	C370.873840,524.737183 371.101013,521.836609 374.111389,520.984192 
	C376.499359,520.308044 378.890656,519.817505 381.399109,519.985901 
	C383.557617,520.130798 385.699677,520.048218 387.752808,518.292175 
	C388.444458,518.000183 388.888885,518.000366 389.666687,518.001465 
z"/>
<path fill="#EE8DA2" opacity="1.000000" stroke="none" 
	d="
M350.636749,527.788696 
	C356.924896,526.442810 360.975250,529.609253 364.902527,533.786987 
	C362.138458,536.729187 358.736664,538.044617 354.407593,537.906067 
	C352.811493,536.988525 352.349548,535.594421 351.244568,534.250366 
	C347.678986,530.424072 347.613647,529.846497 350.636749,527.788696 
z"/>
<path fill="#EF91A5" opacity="1.000000" stroke="none" 
	d="
M450.997681,495.671570 
	C446.621735,494.629974 446.753784,491.072601 446.138153,487.787964 
	C448.427246,487.066620 448.609100,489.005493 449.647614,489.599823 
	C452.124451,491.017334 454.632202,492.102844 454.275940,487.471069 
	C454.098755,485.167847 455.175079,484.518738 456.834290,485.647949 
	C458.865906,487.030640 461.258148,486.969543 463.733398,487.988037 
	C460.407654,491.562317 455.564941,493.076843 450.997681,495.671570 
z"/>
<path fill="#EE8CA1" opacity="1.000000" stroke="none" 
	d="
M440.360168,503.977234 
	C439.338531,503.007935 438.555664,501.942749 437.936310,500.789703 
	C437.239014,499.491547 436.392456,498.016602 437.602631,496.677948 
	C438.755310,495.402893 440.036346,496.776855 441.633179,496.952667 
	C442.594055,497.846863 443.188293,498.694946 443.913757,499.826080 
	C443.388275,501.776428 442.231750,502.992096 440.360168,503.977234 
z"/>
<path fill="#F08FA5" opacity="1.000000" stroke="none" 
	d="
M391.336792,526.904358 
	C390.945770,525.343994 387.740143,523.417419 391.805054,522.239990 
	C393.456543,522.079590 394.516602,522.683594 394.949585,524.509399 
	C393.120636,524.357239 392.706787,526.149902 391.336792,526.904358 
z"/>
<path fill="#EE8BA0" opacity="1.000000" stroke="none" 
	d="
M350.994995,534.355225 
	C352.947876,534.135376 353.941223,535.180725 353.993378,537.482422 
	C352.342987,537.754700 351.072998,539.820801 349.057800,538.373718 
	C350.350403,537.414124 351.029877,536.288574 350.994995,534.355225 
z"/>
<path fill="#EE8DA2" opacity="1.000000" stroke="none" 
	d="
M368.274780,533.870483 
	C368.118927,533.586670 368.276581,533.380249 368.660156,533.118530 
	C368.731628,533.315979 368.632355,533.610779 368.274780,533.870483 
z"/>
<path fill="#EE8CA1" opacity="1.000000" stroke="none" 
	d="
M450.273407,497.870422 
	C450.118622,497.584473 450.278168,497.377594 450.664246,497.115112 
	C450.735046,497.313995 450.634064,497.610657 450.273407,497.870422 
z"/>
<path fill="#FEFEFE" opacity="1.000000" stroke="none" 
	d="
M231.590210,135.666687 
	C234.284744,136.256714 236.306931,135.902023 238.310272,134.176514 
	C241.229691,131.661942 245.310959,131.476395 248.810287,130.674301 
	C253.217941,129.664017 257.644165,128.382477 262.070068,127.708755 
	C272.791046,126.076836 283.534546,123.554230 294.495972,125.127815 
	C296.697083,125.443794 298.719025,124.944977 300.829468,124.962708 
	C316.585876,125.095146 331.934937,127.845642 347.021088,132.105301 
	C349.969452,132.937790 352.518616,135.157867 356.186493,135.209747 
	C367.801514,138.815201 377.932190,144.703064 388.110321,150.526154 
	C395.894562,154.979645 401.727631,162.029572 409.746033,166.655457 
	C410.204376,167.508987 410.437500,168.101105 410.850037,168.939789 
	C411.038788,169.395966 411.088715,169.587067 411.088562,170.070160 
	C418.203217,178.485703 425.535065,186.468872 431.792816,195.347748 
	C435.844482,201.096512 439.388336,207.333435 444.161835,212.409164 
	C449.694733,218.292374 451.566864,226.070114 454.941620,232.753159 
	C460.042908,242.855270 465.362518,253.239075 468.545135,264.335602 
	C469.952454,269.242340 472.452240,273.821045 472.601471,279.129028 
	C472.639557,280.483459 472.606384,282.575104 474.791992,283.197662 
	C475.890778,283.510651 476.180450,284.698120 476.245789,285.642853 
	C476.872620,294.709198 480.063721,303.311401 480.985840,312.327026 
	C481.822113,320.503326 483.127502,328.700500 483.496887,336.836670 
	C483.787262,343.232849 484.243073,350.036804 481.931091,356.473175 
	C481.322662,358.166962 482.083832,360.317017 482.031097,362.252502 
	C481.826752,369.751526 479.162048,376.803680 477.991608,384.116638 
	C477.128845,389.507568 475.596466,394.711060 473.781067,399.747009 
	C471.999939,404.687897 469.013092,409.197083 466.506500,413.869507 
	C466.213684,414.415314 465.417206,414.711182 465.179108,415.263123 
	C459.552002,428.306610 448.629059,436.612457 437.161652,443.301605 
	C427.345123,449.027740 416.843933,454.224030 405.567017,457.129333 
	C402.988739,457.793579 400.809937,459.299255 398.341064,460.930969 
	C397.448151,461.504974 396.873169,461.962341 395.801544,462.293030 
	C394.710632,462.478638 394.023285,462.723633 393.018372,463.192444 
	C385.090790,464.891144 377.519897,466.511475 369.636108,468.404572 
	C365.468048,469.260498 361.753632,470.424744 357.975647,471.354095 
	C355.685425,471.917419 353.525055,472.226501 350.859528,471.742584 
	C341.623016,473.269806 332.689636,474.174927 323.408813,475.407043 
	C318.086761,475.392090 313.171112,473.783142 308.251465,475.308044 
	C307.935455,475.406006 307.586182,475.626984 307.302307,475.564362 
	C299.812988,473.912720 291.992615,474.236755 284.682190,474.840790 
	C275.144531,475.628815 266.232971,471.949158 256.455627,473.018433 
	C253.820099,472.767639 251.701782,471.867371 249.164871,472.564514 
	C242.827698,473.889038 237.749710,469.991425 231.850403,469.564240 
	C223.141907,468.933655 214.413437,467.201508 205.946625,464.975555 
	C196.361481,462.455658 186.310623,461.652832 177.506561,455.834381 
	C173.795090,453.381561 168.385300,453.120270 163.964340,450.878540 
	C153.271072,445.456299 144.086136,438.349274 135.094742,430.344940 
	C128.798538,424.739868 125.811172,417.319733 120.517303,411.322052 
	C118.089294,408.571259 115.993172,403.504822 115.862091,398.631744 
	C115.795235,396.146240 114.810677,393.368713 113.396782,391.300110 
	C110.150253,386.550140 109.418091,380.586090 108.954277,375.723267 
	C108.305862,368.924957 105.834267,362.312042 106.774818,355.056793 
	C107.551918,349.062469 106.139626,342.561005 105.349197,336.385712 
	C104.902214,332.893646 106.451576,330.158203 106.510818,326.932098 
	C106.690269,317.159363 108.456207,307.464172 111.608711,298.103180 
	C111.825928,297.458160 111.219994,296.535980 110.939728,295.381958 
	C109.292168,293.059875 109.844925,291.277039 111.717606,289.364075 
	C115.040390,282.562012 116.872765,275.588104 119.204109,268.785187 
	C122.417633,259.408020 125.493256,249.917648 130.264435,241.156540 
	C133.054169,236.033875 134.204239,230.195068 137.882721,225.412231 
	C140.642548,221.823837 142.133194,217.390015 145.014542,213.710770 
	C148.363739,209.434174 152.968735,205.902420 153.487106,199.645386 
	C153.782227,196.082947 158.032043,194.892166 160.037003,191.935120 
	C163.569519,186.725159 166.718094,180.698776 172.269897,177.226120 
	C174.592560,175.773285 174.604675,174.441254 174.299774,172.066544 
	C174.595444,171.486664 174.930511,171.352417 175.568283,171.320374 
	C176.380859,171.355545 176.841751,171.187561 177.363724,170.489441 
	C183.273697,165.283478 187.800476,158.908676 195.179657,155.886734 
	C197.437592,154.962067 198.675842,152.391373 200.712173,150.905151 
	C206.623917,146.590439 213.557327,144.097961 219.678482,140.128235 
	C223.173752,137.861450 226.305847,134.219650 231.590210,135.666687 
z"/>
<path fill="#110E16" opacity="1.000000" stroke="none" 
	d="
M176.239304,172.064850 
	C175.623398,171.688049 175.241928,171.629578 174.575867,171.636871 
	C173.824936,169.213669 171.849823,168.821762 169.833435,168.527145 
	C159.661224,167.040894 152.772781,160.459900 147.535538,152.555191 
	C144.609390,148.138702 142.250900,143.223953 140.991196,137.384796 
	C139.038742,128.334396 139.380585,120.464722 142.321609,111.841698 
	C144.271378,106.124939 147.346420,102.072823 151.209457,97.612381 
	C157.297485,90.582870 165.277115,87.087051 173.087692,83.739426 
	C182.182678,79.841309 192.444519,77.570435 202.241638,80.507942 
	C209.572540,82.705978 215.934296,87.512001 220.985260,93.743538 
	C224.505585,98.086647 225.642899,103.700813 228.558121,107.958099 
	C232.438492,113.624847 230.284805,119.735855 232.241531,125.399963 
	C233.143768,128.011597 230.266022,131.692871 231.866638,135.473602 
	C225.025223,138.364975 218.766724,141.870071 212.677216,145.996902 
	C208.792343,148.629654 204.160507,149.987823 200.272293,153.156891 
	C192.738678,159.297119 184.552246,164.637131 177.395523,171.757141 
	C176.877121,172.043823 176.675430,172.213501 176.239304,172.064850 
z"/>
<path fill="#110E15" opacity="1.000000" stroke="none" 
	d="
M409.516541,169.304932 
	C410.062653,164.700409 405.059723,167.123077 403.628113,164.353439 
	C401.745544,160.711304 397.363312,158.019638 394.265564,156.023804 
	C388.994934,152.628052 383.502991,149.148132 378.038605,145.875168 
	C373.601227,143.217377 368.011780,143.170532 364.227814,138.800034 
	C362.873230,137.235519 358.671844,138.778809 356.699036,135.542191 
	C358.158813,131.633377 357.639893,127.682365 357.704559,124.125412 
	C357.898193,113.475761 360.601654,103.709602 366.563751,95.154953 
	C376.228241,81.287941 394.699432,76.835907 410.545654,82.226280 
	C417.973145,84.752884 425.376862,86.825844 431.453217,91.982155 
	C434.952972,94.951973 439.309143,96.946121 442.158325,101.119324 
	C446.846893,106.065277 450.559601,111.183266 449.100281,118.639862 
	C454.030548,141.247894 435.689514,169.562820 411.448883,170.254517 
	C411.038452,170.362167 410.897125,170.105713 410.768066,170.036621 
	C410.430664,169.647202 410.131683,169.477921 409.516541,169.304932 
z"/>
<path fill="#ED889D" opacity="1.000000" stroke="none" 
	d="
M531.706909,215.728333 
	C529.911865,214.759827 528.270996,214.142548 527.120422,213.021942 
	C524.981079,210.938461 523.614380,212.095291 521.208069,212.926285 
	C516.297791,214.622025 514.851685,218.723297 512.483643,222.274429 
	C510.710602,224.933304 509.181793,227.853714 510.265930,231.173264 
	C511.574799,235.180862 509.263733,236.454330 506.142578,236.411469 
	C504.183960,236.384552 503.309052,237.079514 502.778625,238.555756 
	C501.609894,241.808487 500.124542,244.393036 496.270416,245.339005 
	C494.008850,245.894073 495.419891,247.739029 496.389130,248.843369 
	C498.923065,251.730423 501.285614,254.715988 502.618347,258.377533 
	C503.170685,259.895111 503.187195,261.388397 501.771179,262.443756 
	C500.573151,263.336670 499.184998,264.320129 497.676361,263.264832 
	C495.279572,261.588287 492.666168,260.929504 489.788574,260.676910 
	C488.323761,260.548279 486.707520,259.554840 487.198914,257.672058 
	C487.814392,255.313705 489.082550,257.004822 490.165527,257.438141 
	C492.720917,258.460541 493.232025,256.944031 492.780609,254.973862 
	C491.684052,250.187759 487.991913,247.526855 484.073639,245.282944 
	C482.771484,244.537201 480.820465,244.899734 480.499207,246.788986 
	C480.208130,248.500839 481.794312,248.834183 483.190430,248.972885 
	C484.180298,249.071228 485.217896,249.020493 486.147614,249.312180 
	C487.383850,249.700058 487.935944,250.731766 487.859558,252.042374 
	C487.771210,253.558762 486.721741,253.786530 485.465363,253.995255 
	C480.182648,254.872818 476.197998,252.415649 475.076050,247.219421 
	C473.965271,242.074783 473.969513,237.031021 477.740723,232.748871 
	C478.696014,231.664154 479.592560,230.086151 478.399323,229.236359 
	C473.825226,225.978836 477.386505,222.554855 478.239044,219.518539 
	C479.213074,216.049530 481.068237,212.668198 485.745605,212.804092 
	C486.431610,212.824005 487.515167,212.177658 487.779907,211.565170 
	C489.468323,207.658752 492.966309,208.108841 496.218140,207.732361 
	C498.952545,207.415802 502.021027,208.402206 502.713776,203.549698 
	C503.181671,200.272247 514.017090,199.747986 516.922546,202.496292 
	C517.878662,203.400726 518.676941,204.478622 519.668152,205.337952 
	C521.365173,206.809219 522.880676,207.528671 523.038635,204.178329 
	C523.143066,201.963470 524.195435,200.746979 526.619568,201.344818 
	C527.094055,201.461823 527.632324,201.645203 528.069763,201.529083 
	C529.613770,201.119247 529.298157,196.849670 531.611572,199.044556 
	C533.629395,200.958984 535.290466,204.405106 534.715271,207.153198 
	C533.880798,211.140411 534.843323,212.728714 538.680176,213.138687 
	C540.093018,213.289627 541.138489,214.284607 541.570312,215.610840 
	C541.926086,216.703461 541.082397,217.489487 540.267700,218.086624 
	C538.355896,219.487823 538.302979,217.331131 537.409973,216.631882 
	C535.846619,215.407593 533.841675,216.290482 531.706909,215.728333 
z"/>
<path fill="#EE8BA0" opacity="1.000000" stroke="none" 
	d="
M394.763580,461.518494 
	C395.742493,461.202942 396.490814,461.018890 397.619568,460.923340 
	C398.118195,462.570557 397.723328,464.051880 396.815216,465.257202 
	C394.910461,467.785461 394.184113,469.674805 397.937469,471.422455 
	C399.677063,472.232483 399.888977,474.938477 399.553436,476.771057 
	C399.202728,478.686188 397.061584,478.007080 395.703156,477.946594 
	C393.870087,477.864960 392.685913,479.217255 390.649231,479.737122 
	C390.952911,476.734192 390.282745,474.139984 386.659698,475.136108 
	C383.673401,475.957214 380.947601,477.366180 382.648193,481.491394 
	C383.882965,484.486664 381.101044,486.892883 381.046173,489.896515 
	C381.017548,491.463867 378.024475,491.162781 376.238800,490.489349 
	C375.284515,490.129395 374.253571,488.439850 373.374847,490.062561 
	C372.584625,491.521942 374.137756,492.239746 375.174744,493.118164 
	C377.174713,494.812378 379.416168,492.561951 381.684509,493.864563 
	C379.321442,500.344940 376.011230,506.301727 371.154114,511.701080 
	C369.922852,512.884460 368.649658,514.783020 367.384735,513.026367 
	C363.986481,508.307129 361.172974,511.973145 358.075256,513.649048 
	C357.555542,514.000000 357.111115,514.000000 356.333313,514.000000 
	C354.121307,510.345917 349.342499,510.092499 347.162292,506.300812 
	C347.962097,505.010681 349.071716,504.967834 350.634766,505.745117 
	C352.758881,508.736115 355.105896,508.614014 357.375275,506.961945 
	C359.768707,505.219604 359.286438,502.781372 357.805542,500.784149 
	C355.624054,497.842102 354.067871,492.354462 348.902252,497.720978 
	C348.631561,498.002228 347.744690,498.136047 347.493561,497.924408 
	C342.513000,493.728760 339.312469,498.509216 335.476471,500.200317 
	C334.134369,500.791962 332.628937,501.007690 331.206940,501.425323 
	C330.089264,501.753601 328.867096,502.319427 328.286316,500.751404 
	C327.816895,499.483917 328.226196,498.469818 329.662292,498.092041 
	C330.442047,497.886932 331.583496,497.855927 331.533234,496.837311 
	C331.177795,489.634521 336.264404,491.480133 340.217804,491.628265 
	C341.357391,491.670929 342.648163,492.353729 343.437683,491.267700 
	C344.473175,489.843231 343.951965,488.449829 342.315674,487.180298 
	C341.470459,486.415131 341.185638,485.733551 341.249908,484.575806 
	C342.030457,482.264374 343.948517,481.343536 345.137085,479.741791 
	C348.284302,475.500427 351.077240,475.704193 355.063599,479.126831 
	C357.225891,480.983337 357.266266,485.703400 362.822479,483.803650 
	C365.502014,482.887421 369.194397,484.391022 371.714966,481.360260 
	C372.173431,480.808990 373.325256,481.040833 373.825745,479.838165 
	C372.252838,479.248993 371.240845,476.122314 369.117157,479.781769 
	C367.877838,481.917297 365.265594,481.748260 363.360138,480.366272 
	C361.423553,478.961670 362.515167,477.024139 363.328094,475.424561 
	C364.753754,472.619385 367.222504,470.478424 368.745178,467.314514 
	C376.731293,465.413177 384.462067,463.751801 392.596832,462.045990 
	C393.537567,461.997742 394.055481,461.912048 394.763580,461.518494 
z"/>
<path fill="#EE8DA1" opacity="1.000000" stroke="none" 
	d="
M341.957397,483.665344 
	C342.000000,484.750000 342.000000,485.500000 342.000000,486.625000 
	C341.019531,487.059418 339.750366,486.742920 339.104950,487.238617 
	C334.512360,490.765778 331.816650,487.467896 328.460907,483.851196 
	C328.652069,487.278229 329.937317,490.305786 327.060486,492.640320 
	C325.304657,491.687561 326.845581,486.663177 322.352539,488.959167 
	C322.106293,488.200012 321.913605,486.998383 322.365173,486.662231 
	C326.856171,483.319305 325.462463,479.720581 323.013885,475.669617 
	C326.944672,471.109772 332.408722,473.677490 337.037231,472.243866 
	C341.233398,470.944183 345.790802,470.810913 350.593781,470.151642 
	C352.776764,472.521179 351.932098,474.719177 349.404022,474.900635 
	C345.311157,475.194427 343.740143,477.144867 343.318634,480.844513 
	C343.215637,481.748749 341.916656,482.222382 341.957397,483.665344 
z"/>
<path fill="#EC859B" opacity="1.000000" stroke="none" 
	d="
M465.156982,205.911926 
	C467.468445,206.998260 467.390015,209.020264 467.929657,210.700287 
	C468.178741,211.475708 468.042603,212.903366 468.419525,213.030258 
	C474.491119,215.074432 472.291565,220.062576 472.597046,224.198944 
	C472.693115,225.499664 472.451935,226.576233 471.498199,227.304031 
	C470.422272,228.125122 469.794708,226.869781 468.948822,226.495300 
	C465.488617,224.963440 462.976837,223.090302 464.894562,218.708130 
	C465.262512,217.867233 464.897980,216.614151 463.722626,216.271011 
	C456.489197,214.159134 456.404510,208.122070 456.026733,202.278046 
	C455.918701,200.607330 455.937866,198.736877 458.074951,198.268967 
	C460.050812,197.836349 460.968964,199.558533 462.105133,200.712234 
	C463.499939,202.128571 462.460999,204.851288 465.156982,205.911926 
z"/>
<path fill="#EC849A" opacity="1.000000" stroke="none" 
	d="
M281.967072,101.773193 
	C281.323608,97.851311 277.626007,95.340271 278.913300,91.088295 
	C279.457062,89.292236 279.320435,87.439934 281.715363,87.068382 
	C283.940369,86.723175 285.383606,87.779030 285.720154,89.821274 
	C286.053925,91.846786 287.215271,92.840439 288.721741,94.035614 
	C292.668854,97.167107 291.833588,103.803810 287.431763,105.948334 
	C286.718384,106.295891 285.562256,106.535164 285.397034,107.068184 
	C284.696259,109.329285 283.604919,110.992126 281.224762,109.305130 
	C279.130768,107.820961 280.065765,105.816261 281.277710,104.029564 
	C281.634094,103.504150 281.732544,102.803749 281.967072,101.773193 
z"/>
<path fill="#EC849A" opacity="1.000000" stroke="none" 
	d="
M526.180115,254.169189 
	C524.610229,255.298050 522.369385,254.601639 522.004822,256.917023 
	C521.690247,258.915131 520.330139,259.296173 518.703918,258.626556 
	C517.021790,257.933929 516.485840,256.178345 517.315796,254.901321 
	C519.634827,251.333496 519.335693,248.667618 516.371460,245.393066 
	C515.044861,243.927567 515.660095,240.608658 516.489380,238.194916 
	C516.957886,236.831177 517.895935,236.037323 519.453613,236.017380 
	C521.003296,235.997528 522.150024,236.706207 522.445007,238.104187 
	C522.954773,240.520325 524.612610,241.801575 526.198792,243.501740 
	C528.996094,246.499954 528.993530,250.363998 526.180115,254.169189 
z"/>
<path fill="#EC859B" opacity="1.000000" stroke="none" 
	d="
M63.369331,242.447800 
	C64.171951,240.494827 65.339508,239.612045 67.025665,240.246277 
	C69.273972,241.091949 70.585892,243.911942 70.356628,245.253021 
	C69.320831,251.311783 73.500412,254.857239 76.489067,258.654510 
	C78.531540,261.249664 78.846542,264.395111 80.715065,266.900238 
	C81.268425,267.642090 81.097702,268.936890 80.126122,269.559814 
	C79.226433,270.136627 78.204704,269.986481 77.374985,269.257690 
	C77.006752,268.934265 76.687263,268.530396 76.427505,268.112183 
	C73.233398,262.968933 69.821236,258.108368 65.615845,253.601242 
	C63.771156,251.624176 63.672508,246.557404 63.369331,242.447800 
z"/>
<path fill="#ED8A9F" opacity="1.000000" stroke="none" 
	d="
M412.998108,494.612091 
	C410.895905,495.133911 408.718170,494.594879 406.360413,495.843658 
	C403.489838,498.055511 401.233185,496.598846 398.655334,495.302734 
	C397.206543,494.286316 396.333191,492.932434 394.330750,493.182709 
	C393.203583,493.379730 392.430908,493.702179 391.314880,493.961975 
	C390.195770,493.751190 389.391541,493.503601 388.294861,493.126770 
	C388.690826,490.922699 392.444244,489.025513 388.244446,486.623505 
	C387.632690,486.273651 388.049927,484.726746 388.815735,483.951599 
	C390.107544,482.643982 391.309875,483.623138 392.384552,484.269348 
	C395.629181,486.220184 407.368805,490.618378 411.303680,491.193542 
	C413.257538,491.479156 412.869995,492.972534 412.998108,494.612091 
z"/>
<path fill="#E68095" opacity="1.000000" stroke="none" 
	d="
M449.319397,118.992981 
	C448.680145,112.651451 445.139893,107.482338 442.667053,101.539322 
	C446.068207,100.208763 450.074554,97.997421 450.581848,104.650528 
	C450.652832,105.581535 452.341034,106.527374 453.437866,107.215935 
	C456.638641,109.225357 456.288116,112.244247 455.710876,115.202339 
	C455.085724,118.405899 452.770050,119.368523 449.319397,118.992981 
z"/>
<path fill="#EC859A" opacity="1.000000" stroke="none" 
	d="
M111.941399,288.827606 
	C111.763412,290.864166 111.428131,292.572632 110.987717,294.651184 
	C108.849464,297.075989 104.666603,296.580902 104.319527,300.764404 
	C104.240379,301.718414 102.827728,301.903290 101.848450,301.183899 
	C100.373520,300.100372 99.324455,298.414673 100.324020,296.920288 
	C102.197372,294.119629 102.113892,291.487946 101.157448,288.473206 
	C100.588936,286.681274 101.928207,285.383606 103.355530,284.395081 
	C104.833923,283.371216 106.002243,283.322052 107.749184,284.458862 
	C109.473381,285.580872 111.012192,286.562408 111.941399,288.827606 
z"/>
<path fill="#EC8399" opacity="1.000000" stroke="none" 
	d="
M450.664246,185.578766 
	C448.000946,190.655182 445.185852,191.163696 441.576416,187.596558 
	C439.767181,185.808487 436.187836,184.559021 437.363068,181.582230 
	C438.666931,178.279678 442.367126,180.619629 444.932648,180.021240 
	C445.560730,179.874741 446.260498,180.068466 446.913147,179.989120 
	C451.283234,179.457932 452.847565,180.986115 450.664246,185.578766 
z"/>
<path fill="#ED899E" opacity="1.000000" stroke="none" 
	d="
M415.771179,470.992828 
	C410.794464,471.150696 407.103577,470.002655 405.479462,465.083252 
	C405.088470,463.898804 403.565033,463.017761 405.405487,461.875061 
	C406.798462,461.010223 408.313446,460.623230 409.386902,462.151093 
	C411.511230,465.174652 413.558441,468.145294 417.791595,468.283569 
	C418.491028,468.306427 418.848297,469.080688 418.633942,469.794006 
	C418.266205,471.017914 417.159241,470.902283 415.771179,470.992828 
z"/>
<path fill="#EF91A5" opacity="1.000000" stroke="none" 
	d="
M434.553467,484.543671 
	C436.610199,484.126068 438.519073,484.374573 438.491119,486.464569 
	C438.467316,488.248718 437.164154,489.844238 435.368011,490.658356 
	C434.351593,491.119049 433.339478,490.838043 432.716522,489.946259 
	C431.090607,487.618530 433.430756,486.398529 434.553467,484.543671 
z"/>
<path fill="#EE8BA0" opacity="1.000000" stroke="none" 
	d="
M350.846924,527.711792 
	C347.093323,529.710327 351.326935,531.543030 350.960114,533.652954 
	C345.100891,534.886047 345.865204,531.454041 346.989685,527.397705 
	C348.431641,525.394348 349.596771,526.112366 350.846924,527.711792 
z"/>
<path fill="#EE8BA0" opacity="1.000000" stroke="none" 
	d="
M350.999573,505.582764 
	C349.933319,506.000000 348.866669,506.000000 347.399994,506.000000 
	C345.683838,504.644501 345.626770,503.107788 346.662750,501.653870 
	C347.281982,500.784821 348.449432,500.907135 349.361481,501.150818 
	C351.582153,501.744141 350.808960,503.675415 350.999573,505.582764 
z"/>
<path fill="#F7D2DA" opacity="1.000000" stroke="none" 
	d="
M249.252914,472.841034 
	C250.974518,469.855316 253.287277,470.709381 255.821854,472.663483 
	C253.866867,474.975159 251.750458,473.699432 249.252914,472.841034 
z"/>
<path fill="#EE8DA1" opacity="1.000000" stroke="none" 
	d="
M321.646851,488.959473 
	C321.852051,489.461212 321.844574,490.151794 321.531555,490.343445 
	C320.261993,491.120789 319.465851,493.208710 317.527740,492.153748 
	C317.131561,491.938080 317.041107,490.592407 317.261810,489.914825 
	C318.023804,487.575043 319.746429,488.465851 321.646851,488.959473 
z"/>
<path fill="#EE8DA2" opacity="1.000000" stroke="none" 
	d="
M390.954132,494.355591 
	C391.110046,492.575867 391.947021,491.996002 393.650848,492.008118 
	C395.010986,492.824951 395.902100,493.852997 397.670715,493.969727 
	C400.533691,494.217224 402.516266,496.418518 405.613525,496.000824 
	C405.031860,501.071167 403.631226,501.971832 399.010315,500.454926 
	C397.638153,500.004517 396.465576,498.874603 394.792847,499.610321 
	C393.213043,500.305176 391.531616,501.889862 389.820465,500.038208 
	C387.828583,497.882751 390.631653,496.514801 390.954132,494.355591 
z"/>
<path fill="#ED8A9F" opacity="1.000000" stroke="none" 
	d="
M365.566772,521.360474 
	C365.355469,520.608032 365.619019,520.335938 366.202820,520.452026 
	C366.324127,520.476135 366.487305,520.648071 366.505646,520.770752 
	C366.593811,521.360657 366.306854,521.607727 365.566772,521.360474 
z"/>
<path fill="#EE8DA2" opacity="1.000000" stroke="none" 
	d="
M376.463623,524.437012 
	C377.833130,523.012390 379.315063,522.328430 380.392456,523.848511 
	C381.086548,524.827759 380.144958,526.197083 379.072021,526.622131 
	C377.526642,527.234253 376.059784,527.101074 376.463623,524.437012 
z"/>
<path fill="#110F17" opacity="1.000000" stroke="none" 
	d="
M316.572693,263.844910 
	C318.411530,255.218369 322.734283,248.974899 329.560242,243.700653 
	C333.376862,240.751617 336.912811,237.425827 341.416656,235.881485 
	C352.148407,232.201569 363.259247,231.613266 373.344330,237.180099 
	C381.877289,241.890198 390.538269,247.070068 395.889069,255.799713 
	C399.972229,262.461304 405.989471,267.891418 408.732788,275.352112 
	C411.382355,282.557953 414.452545,289.790955 415.661255,297.282562 
	C416.503357,302.502014 414.625183,308.196716 413.711700,313.637054 
	C413.487732,314.970795 412.616272,316.403046 410.873047,316.787750 
	C409.944733,316.992584 408.648376,317.020874 408.441528,318.207428 
	C407.393402,324.219177 402.113556,324.877136 397.774994,326.230377 
	C395.593323,326.910889 395.573242,329.087250 393.453369,329.808807 
	C384.527283,332.847260 375.655914,334.441925 366.068756,333.683136 
	C359.550385,333.167236 352.830566,333.329407 347.264282,330.045593 
	C339.361237,325.383118 331.209320,320.595245 326.735504,311.891785 
	C323.697357,305.981415 319.060547,300.607971 317.832581,294.123352 
	C316.263702,285.838257 312.999786,277.563354 315.480347,268.749268 
	C315.882690,267.319519 317.512543,266.061127 316.572693,263.844910 
z"/>
<path fill="#110F16" opacity="1.000000" stroke="none" 
	d="
M173.329208,304.134644 
	C174.716858,297.093628 175.815475,290.362701 176.976639,283.642578 
	C178.313263,275.906921 183.515930,270.191986 187.452744,263.822083 
	C190.094849,259.547089 193.429672,256.026825 197.131256,252.505692 
	C200.948273,248.874695 204.766586,245.102066 208.810318,241.720352 
	C215.961105,235.740265 224.528030,232.987366 233.824005,233.211380 
	C248.685715,233.569489 259.786774,241.119400 268.460388,252.550064 
	C271.891296,257.071503 271.675568,263.272430 274.549377,268.211761 
	C275.086975,269.135742 274.006561,271.018799 273.633148,272.448883 
	C273.383148,273.406189 272.601318,274.491364 272.847504,275.269287 
	C274.774750,281.359222 272.141083,286.814056 271.348297,292.602020 
	C270.553436,298.405304 265.830353,302.229248 265.954376,307.916016 
	C259.715088,311.156891 258.411621,318.667847 252.158340,322.712097 
	C246.886734,326.121490 241.707809,329.292267 236.055115,332.110443 
	C230.800659,334.730103 225.560394,333.217072 220.437866,334.207123 
	C214.973938,335.263092 209.992584,330.550903 204.522461,333.220642 
	C197.657013,328.127411 188.078964,328.572388 182.264984,320.307739 
	C178.656754,315.178650 175.039093,310.398529 173.329208,304.134644 
z"/>
<path fill="#16131B" opacity="1.000000" stroke="none" 
	d="
M255.703018,346.486084 
	C258.481140,343.965302 260.839142,342.435303 264.929199,342.433197 
	C268.324615,342.431458 272.250427,342.344879 275.441376,342.625427 
	C281.898438,343.193176 288.291107,342.193298 294.687683,342.419769 
	C300.445007,342.623566 306.592590,344.570099 312.335907,342.258148 
	C314.391846,341.430511 314.808289,343.899994 317.256989,343.464355 
	C322.093842,342.603912 327.476837,343.223572 332.139374,345.911255 
	C333.667145,346.791931 334.942749,347.919586 333.925354,349.705261 
	C332.424927,352.338684 330.851288,356.647614 328.845306,356.928101 
	C324.279144,357.566589 322.312469,361.787354 317.917908,362.738739 
	C313.102600,363.781189 308.439026,364.773315 303.477295,365.214020 
	C297.822205,365.716400 292.302521,365.544281 286.723755,365.037720 
	C284.918915,364.873871 283.036682,364.805298 281.748779,363.288635 
	C281.260468,362.713623 280.515839,362.170380 280.123016,362.540344 
	C276.259308,366.179260 274.310181,362.386993 271.709930,360.615295 
	C270.710754,359.934509 269.208679,359.993103 267.936371,359.711823 
	C262.693268,358.552643 256.548431,352.155121 255.703018,346.486084 
z"/>
<path fill="#E17976" opacity="1.000000" stroke="none" 
	d="
M324.359802,401.772644 
	C327.432953,408.284119 323.843018,412.510712 320.151733,416.701569 
	C320.051270,416.815643 319.766876,416.805695 319.715729,416.919769 
	C316.897430,423.202820 311.102966,426.262299 305.188080,427.217499 
	C295.218262,428.827423 285.071198,427.888184 275.780396,423.269073 
	C271.452057,421.117188 268.032806,417.471893 264.075897,414.664459 
	C260.601440,412.199341 261.831116,403.361755 265.249603,400.462708 
	C267.945557,398.176392 271.603058,398.912262 272.582428,401.216309 
	C273.948151,404.429108 276.910461,406.078674 278.303864,409.201416 
	C279.470032,411.814819 282.562592,413.007874 285.609070,414.179932 
	C294.208160,417.488220 301.559082,413.633392 309.031708,410.946777 
	C311.826599,409.941925 313.582092,406.612579 314.718842,403.703674 
	C316.802063,398.372894 319.848785,397.522339 324.359802,401.772644 
z"/>
<path fill="#EE8DA2" opacity="1.000000" stroke="none" 
	d="
M342.332886,483.851685 
	C341.029388,483.934601 339.830048,484.141785 339.392029,483.045868 
	C338.913971,481.849792 339.735809,481.213806 340.858551,481.029388 
	C342.535950,480.753906 343.172516,479.846039 342.570801,478.237671 
	C340.976562,473.976288 343.691193,473.917694 346.632812,473.990570 
	C348.802063,474.044312 351.196838,474.332611 350.994751,470.543457 
	C356.615509,470.195526 362.161926,469.970795 367.009216,466.537842 
	C367.266449,466.355652 367.916290,466.727875 368.691925,466.958282 
	C370.370270,471.632355 365.297638,472.939636 364.332489,476.321930 
	C364.033997,477.367981 362.781891,478.384369 363.831909,479.477234 
	C364.703522,480.384399 366.035797,479.999054 367.173523,479.900940 
	C368.104065,479.820709 368.683838,479.294739 368.498260,478.245331 
	C368.411804,477.756592 368.230865,477.271118 368.228516,476.783539 
	C368.222443,475.495453 369.701447,474.656738 370.073944,475.198608 
	C371.809174,477.723206 376.202576,477.298584 376.579590,481.004089 
	C376.720184,482.385834 375.471313,482.936127 374.105560,482.499207 
	C372.933563,482.124298 371.772034,481.833130 371.041199,483.146790 
	C369.227386,486.406921 367.434143,489.387665 364.099396,484.418030 
	C363.960449,484.211029 362.948425,484.232513 362.744690,484.479187 
	C358.808655,489.245117 357.909760,486.112183 356.004974,482.486145 
	C352.622345,476.046814 350.145782,476.194305 345.629608,482.044250 
	C344.993164,482.868652 343.670685,483.163452 342.332886,483.851685 
z"/>
<path fill="#EE8DA2" opacity="1.000000" stroke="none" 
	d="
M394.704834,461.301147 
	C394.762115,462.267731 394.481689,463.069305 393.156281,462.208099 
	C393.260529,461.358246 393.752594,461.133087 394.704834,461.301147 
z"/>
<path fill="#EE8DA2" opacity="1.000000" stroke="none" 
	d="
M409.222839,169.426575 
	C409.724670,169.271851 410.171814,169.371002 410.628967,169.718842 
	C410.148712,169.871826 409.658478,169.776154 409.222839,169.426575 
z"/>
<path fill="#EE8DA2" opacity="1.000000" stroke="none" 
	d="
M176.031342,171.980164 
	C176.195282,171.666992 176.385712,171.587448 176.827484,171.691010 
	C176.895645,172.459763 176.569962,172.616974 176.031342,171.980164 
z"/>
<path fill="#EE8DA2" opacity="1.000000" stroke="none" 
	d="
M494.474976,237.001770 
	C497.241730,233.512970 497.282654,228.613525 501.144867,226.055069 
	C502.250427,225.322723 501.871094,224.071579 501.327118,222.904907 
	C499.549377,219.092087 499.881622,213.940460 501.550873,211.606766 
	C504.081024,208.069519 508.108093,204.791931 512.053528,202.578720 
	C513.864868,201.562668 515.561523,206.080017 516.764343,208.369644 
	C517.503052,209.775818 517.134399,211.446167 514.763733,212.012482 
	C507.788605,213.678772 504.693390,218.141022 506.408661,225.275192 
	C507.378510,229.308746 505.863525,231.259369 502.954193,232.963959 
	C501.497742,233.817291 500.247894,234.754272 499.210815,236.119476 
	C498.055664,237.640091 496.563354,238.721146 494.474976,237.001770 
z"/>
<path fill="#EE8DA2" opacity="1.000000" stroke="none" 
	d="
M390.450073,468.595886 
	C388.897217,467.249664 389.013824,466.081329 390.568695,465.453857 
	C391.820465,464.948669 392.945282,465.981079 393.164459,466.998383 
	C393.573303,468.895905 392.102631,468.909760 390.450073,468.595886 
z"/>
<path fill="#EF90A4" opacity="1.000000" stroke="none" 
	d="
M397.964050,493.672852 
	C397.341614,495.150970 396.554291,496.236908 395.031036,495.649323 
	C393.700653,495.136169 394.119751,493.803314 394.002197,492.375702 
	C395.806366,491.000732 397.301331,490.904907 397.964050,493.672852 
z"/>
</svg>